<?xml version="1.0" standalone="no"?>
<!DOCTYPE svg PUBLIC "-//W3C//DTD SVG 20010904//EN"
 "http://www.w3.org/TR/2001/REC-SVG-20010904/DTD/svg10.dtd">
<svg version="1.0" xmlns="http://www.w3.org/2000/svg"
 width="700.000000pt" height="700.000000pt" viewBox="0 0 700.000000 700.000000"
 preserveAspectRatio="xMidYMid meet">
<metadata>
Created by potrace 1.11, written by Peter Selinger 2001-2013
</metadata>
<g transform="translate(0.000000,700.000000) scale(0.100000,-0.100000)"
fill="#000000" stroke="none">
<path d="M3377 6414 c-1 -1 -40 -4 -87 -8 -168 -12 -220 -19 -395 -56 -334
-70 -683 -214 -985 -408 -81 -52 -220 -153 -248 -179 -7 -7 -34 -29 -60 -50
-81 -65 -284 -274 -368 -379 -254 -317 -448 -702 -549 -1086 -73 -282 -98
-473 -98 -753 0 -132 8 -279 17 -335 3 -14 7 -47 11 -75 20 -159 113 -516 165
-630 5 -11 21 -49 36 -85 38 -95 133 -283 189 -375 46 -77 144 -225 155 -235
3 -3 36 -45 74 -93 77 -99 268 -297 366 -378 36 -30 67 -56 70 -59 13 -13 93
-73 165 -122 257 -178 573 -327 880 -414 54 -16 215 -53 255 -60 14 -2 41 -7
60 -10 19 -4 47 -8 63 -10 15 -2 42 -6 60 -9 173 -24 537 -24 702 0 355 52
643 140 930 282 119 60 224 116 240 130 6 5 34 23 63 41 338 207 681 560 906
934 58 97 164 310 201 403 15 39 31 79 36 90 39 96 113 359 133 475 3 19 8 46
11 60 3 14 8 45 11 70 2 25 7 56 9 70 24 122 24 552 0 680 -2 14 -6 45 -9 70
-3 25 -8 56 -11 70 -3 14 -9 48 -15 75 -75 390 -239 779 -468 1110 -168 243
-390 474 -642 668 -8 7 -49 35 -90 63 -335 228 -753 403 -1120 468 -19 3 -46
8 -60 11 -14 3 -45 8 -70 11 -25 3 -56 7 -70 9 -91 13 -453 28 -463 19z m413
-454 c110 -13 106 -12 230 -39 120 -26 288 -76 358 -107 30 -13 59 -24 65 -24
14 0 211 -97 292 -144 242 -141 476 -335 645 -536 30 -36 57 -67 60 -70 13
-13 130 -182 167 -240 100 -161 205 -391 257 -563 14 -47 26 -87 26 -90 0 -3
-37 14 -82 37 -73 37 -111 52 -192 73 -12 3 -70 7 -131 9 -123 3 -206 -16
-300 -72 -50 -29 -183 -156 -328 -314 -160 -174 -268 -235 -435 -245 -109 -6
-223 31 -482 159 -217 108 -294 134 -410 140 -130 8 -234 -23 -458 -134 -265
-132 -341 -159 -466 -164 -166 -7 -296 63 -467 249 -140 153 -274 280 -325
310 -87 51 -177 74 -289 73 -122 -1 -206 -22 -328 -83 -49 -24 -86 -38 -84
-31 3 8 15 47 27 87 81 273 249 583 447 827 259 319 627 589 990 728 37 14 75
29 84 34 17 9 250 76 289 84 14 2 48 10 75 16 28 6 68 14 90 16 22 3 51 7 65
10 14 2 63 7 110 11 47 3 86 7 88 8 8 7 328 -4 412 -15z m-2461 -2166 c24 -8
62 -28 85 -43 73 -51 105 -96 251 -361 101 -184 168 -282 259 -377 224 -237
448 -298 761 -208 73 21 278 102 460 181 136 59 338 86 475 65 68 -11 224 -57
275 -81 11 -5 90 -38 175 -73 261 -107 348 -131 495 -130 199 0 349 73 516
251 101 107 152 185 324 497 61 111 81 140 129 189 64 65 131 99 204 102 81 4
134 -24 199 -103 l38 -46 1 -151 c1 -83 -3 -182 -7 -221 -5 -38 -11 -92 -15
-120 -5 -41 -33 -191 -48 -255 -40 -170 -123 -386 -217 -566 -49 -95 -158
-270 -203 -326 -11 -14 -32 -41 -46 -59 -14 -19 -60 -72 -102 -120 -297 -333
-719 -596 -1153 -718 -102 -28 -159 -41 -305 -70 -165 -32 -542 -35 -715 -6
-16 3 -59 10 -95 16 -65 11 -197 42 -255 59 -70 21 -193 64 -230 79 -22 10
-60 26 -85 36 -25 11 -92 43 -150 73 -625 323 -1082 906 -1254 1602 -13 52
-27 111 -30 130 -3 19 -8 46 -11 60 -3 14 -7 43 -10 65 -3 22 -8 56 -11 75 -7
49 -12 359 -6 400 7 48 102 143 157 157 57 16 94 15 144 -3z"/>
</g>
</svg>
